{"title":"Un Lugar en el Mundo aka  A Place in the World (1992)","uid":8376997,"size":1169081069,"categoryP":"video","categoryS":"movies","magnet":"?xt=urn:btih:f3ae6d3152d0b0d8a006837816bafadcce4e4236&amp;dn=Un+Lugar+en+el+Mundo+aka++A+Place+in+the+World+%281992%29&amp;tr=udp%3A%2F%2Ftracker.openbittorrent.com%3A80&amp;tr=udp%3A%2F%2Fopen.demonii.com%3A1337&amp;tr=udp%3A%2F%2Ftracker.coppersurfer.tk%3A6969&amp;tr=udp%3A%2F%2Fexodus.desync.com%3A6969","seeders":5,"leechers":0,"uploader":"Aaaameida","files":-1,"time":1366077933,"description":"Language: Spanish\n\nSubtitles: English and Portuguese \n &lt;a href=&quot;\nhttp://www.imdb.com/title/tt0104774/&quot; rel=&quot;nofollow&quot; target=&quot;_NEW&quot;&gt;\nhttp://www.imdb.com/title/tt0104774/&lt;/a&gt;\n\nMario and Ana, in voluntary exile from Buenos Aires, live in a remote Argentine valley with their 12-year-old son Ernesto. Mario runs a school and a wool cooperative; Ana, a doctor, heads a clinic with Nelda, a progressive nun. Into this idealistic family comes Hans, a jaded Spanish geological engineer -- surveying the land for the local patron, to see if it can be dammed for hydro-electric power, which would drive the peasants from the land into the cities. \n\n\n      Format : AVI\n      Format/Info : Audio Video Interleave\n      File size : 1.09 GiB\n      Duration : 2h 1mn\n      Overall bit rate : 1 287 Kbps\n   Video #0\n      ID : 0\n      Format : MPEG-4 Visual\n      Format settings, BVOP : Yes\n      Format settings, QPel : No\n      Format settings, GMC : No warppoints\n      Format settings, Matrix : Default (H.263)\n      Muxing mode : Packed bitstream\n      Codec ID : DX50\n      Codec ID/Hint : DivX 5\n      Duration : 2h 1mn\n      Bit rate : 1 150 Kbps\n      Width : 480 pixels\n      Height : 352 pixels\n      Display aspect ratio : 4:3\n      Frame rate : 25.000 fps\n      Resolution : 24 bits\n      Colorimetry : 4:2:0\n      Scan type : Progressive\n      Bits/(Pixel*Frame) : 0.272\n      Stream size : 995 MiB (89%)\n      Writing library : DivX 5.2.1 (WaffleDay) (UTC 2004-09-08)\n   Audio #1\n      ID : 1\n      Format : MPEG Audio\n      Format version : Version 1\n      Format profile : Layer 3\n      Codec ID : 55\n      Codec ID/Hint : MP3\n      Duration : 2h 1mn\n      Bit rate mode : Constant\n      Bit rate : 128 Kbps\n      Channel(s) : 2 channels\n      Sampling rate : 44.1 KHz\n      Resolution : 16 bits\n      Video delay : 26ms\n      Stream size : 111 MiB (10%)\n      Alignment : Split accross interleaves\n      Interleave, duration : 40 ms (1.00 video frame)\n      Title : Audio Stream","torrent":{"xt":"urn:btih:f3ae6d3152d0b0d8a006837816bafadcce4e4236","amp;dn":"Un+Lugar+en+el+Mundo+aka++A+Place+in+the+World+%281992%29","amp;tr":["udp%3A%2F%2Ftracker.openbittorrent.com%3A80","udp%3A%2F%2Fopen.demonii.com%3A1337","udp%3A%2F%2Ftracker.coppersurfer.tk%3A6969","udp%3A%2F%2Fexodus.desync.com%3A6969"],"infoHash":"f3ae6d3152d0b0d8a006837816bafadcce4e4236","infoHashBuffer":{"type":"Buffer","data":[243,174,109,49,82,208,176,216,160,6,131,120,22,186,250,220,206,78,66,54]},"announce":[],"urlList":[]}}